<svg xmlns="http://www.w3.org/2000/svg" viewBox="0 0 1080 1080" role="img" aria-label="Ko-fi">
  <path fill="#29ABE0" d="M1033.05,0H46.95C21.05,0,0,21.05,0,46.95v986.1C0,1058.95,21.05,1080,46.95,1080h986.1c25.9,0,46.95-21.05,46.95-46.95V46.95C1080,21.05,1058.95,0,1033.05,0z"/>
  <path fill="#FFFFFF" d="M766.5,324.9H313.5c-17.3,0-31.5,14.2-31.5,31.5v367.2c0,17.3,14.2,31.5,31.5,31.5h189c17.3,0,31.5,14.2,31.5,31.5v31.5c0,52.1,42.4,94.5,94.5,94.5h0c52.1,0,94.5-42.4,94.5-94.5v-31.5c0-17.3,14.2-31.5,31.5-31.5h31.5c17.3,0,31.5-14.2,31.5-31.5V356.4C798,339.1,783.8,324.9,766.5,324.9z M502.5,598.5c-34.6,0-62.7-28.1-62.7-62.7s28.1-62.7,62.7-62.7s62.7,28.1,62.7,62.7S537.1,598.5,502.5,598.5z"/>
</svg>
